<svg width="32" height="36" viewBox="0 0 32 36" fill="none" xmlns="http://www.w3.org/2000/svg">
<path d="M11.5625 19.1506C11.5625 20.8706 12.8825 22.2572 14.5225 22.2572H17.8692C19.2958 22.2572 20.4558 21.0439 20.4558 19.5506C20.4558 17.9239 19.7492 17.3506 18.6958 16.9772L13.3225 15.1106C12.2692 14.7372 11.5625 14.1639 11.5625 12.5372C11.5625 11.0439 12.7225 9.83057 14.1492 9.83057H17.4958C19.1358 9.83057 20.4558 11.2172 20.4558 12.9372" stroke="#17191C" stroke-width="1.8" stroke-linecap="round" stroke-linejoin="round"/>
<path d="M16 8.04346V24.0435" stroke="#17191C" stroke-width="1.8" stroke-linecap="round" stroke-linejoin="round"/>
<path d="M15.9993 29.3761C23.3631 29.3761 29.3327 23.4066 29.3327 16.0428C29.3327 8.67901 23.3631 2.70947 15.9993 2.70947C8.63555 2.70947 2.66602 8.67901 2.66602 16.0428C2.66602 23.4066 8.63555 29.3761 15.9993 29.3761Z" stroke="#17191C" stroke-width="1.8" stroke-linecap="round" stroke-linejoin="round"/>
<rect x="4" y="26.0435" width="25" height="9" rx="4" fill="#FCAF17"/>
<path d="M10.7541 33.4055C11.7781 33.4055 12.6821 32.8935 13.1621 32.0855L12.2101 31.5335C11.9461 32.0215 11.3941 32.3255 10.7541 32.3255C10.2101 32.3255 9.77013 32.1575 9.43413 31.8135C9.10613 31.4695 8.93813 31.0295 8.93813 30.4935C8.93813 29.9495 9.10613 29.5095 9.43413 29.1655C9.77013 28.8215 10.2101 28.6535 10.7541 28.6535C11.3941 28.6535 11.9301 28.9495 12.2101 29.4535L13.1621 28.9015C12.6821 28.0935 11.7701 27.5815 10.7541 27.5815C9.91413 27.5815 9.21813 27.8615 8.66613 28.4215C8.11413 28.9735 7.84212 29.6695 7.84212 30.4935C7.84212 31.3175 8.11413 32.0055 8.66613 32.5655C9.21813 33.1255 9.91413 33.4055 10.7541 33.4055ZM18.6148 32.5655C19.1828 31.9975 19.4628 31.3095 19.4628 30.4935C19.4628 29.6775 19.1828 28.9895 18.6148 28.4295C18.0468 27.8615 17.3588 27.5815 16.5508 27.5815C15.7428 27.5815 15.0548 27.8615 14.4868 28.4295C13.9268 28.9895 13.6468 29.6775 13.6468 30.4935C13.6468 31.3095 13.9268 31.9975 14.4868 32.5655C15.0548 33.1255 15.7428 33.4055 16.5508 33.4055C17.3588 33.4055 18.0468 33.1255 18.6148 32.5655ZM15.2628 31.8135C14.9188 31.4695 14.7428 31.0295 14.7428 30.4935C14.7428 29.9575 14.9188 29.5175 15.2628 29.1735C15.6068 28.8295 16.0388 28.6535 16.5508 28.6535C17.0628 28.6535 17.4948 28.8295 17.8388 29.1735C18.1828 29.5175 18.3588 29.9575 18.3588 30.4935C18.3588 31.0295 18.1828 31.4695 17.8388 31.8135C17.4948 32.1575 17.0628 32.3255 16.5508 32.3255C16.0388 32.3255 15.6068 32.1575 15.2628 31.8135ZM20.2388 27.6935V33.2935H22.4628C23.2308 33.2935 23.8708 33.0215 24.3828 32.4855C24.9028 31.9495 25.1588 31.2855 25.1588 30.4935C25.1588 29.7015 24.9028 29.0375 24.3828 28.5015C23.8708 27.9655 23.2308 27.6935 22.4628 27.6935H20.2388ZM21.3428 32.2375V28.7495H22.4628C22.9508 28.7495 23.3428 28.9095 23.6468 29.2375C23.9508 29.5575 24.1028 29.9735 24.1028 30.4935C24.1028 31.0135 23.9508 31.4295 23.6468 31.7575C23.3428 32.0775 22.9508 32.2375 22.4628 32.2375H21.3428Z" fill="#17191C"/>
</svg>
